<svg width="20" height="21" viewBox="0 0 20 21" fill="none" xmlns="http://www.w3.org/2000/svg">
<path id="Icon" fill-rule="evenodd" clip-rule="evenodd" d="M17.5 11.625C17.5 12.315 16.94 12.875 16.25 12.875H11.25C10.905 12.875 10.5925 13.015 10.3663 13.2413L7.5 16.1075V14.125C7.5 13.435 6.94 12.875 6.25 12.875H3.75C3.06 12.875 2.5 12.315 2.5 11.625V4.125C2.5 3.435 3.06 2.875 3.75 2.875H16.25C16.94 2.875 17.5 3.435 17.5 4.125V11.625ZM17.5 0.375H2.5C1.11875 0.375 0 1.495 0 2.875V12.875C0 14.2563 1.11875 15.375 2.5 15.375H5V19.125C5 19.815 5.56 20.375 6.25 20.375C6.595 20.375 6.9075 20.235 7.13375 20.0088L11.7675 15.375H17.5C18.8813 15.375 20 14.2563 20 12.875V2.875C20 1.495 18.8813 0.375 17.5 0.375Z" fill="#CBCBCB"/>
</svg>
