<svg width="20" height="21" viewBox="0 0 20 21" fill="none" xmlns="http://www.w3.org/2000/svg">
<path id="Icon" fill-rule="evenodd" clip-rule="evenodd" d="M10.9091 4.01136V2.19318C10.9091 1.18773 11.7236 0.375 12.7273 0.375C12.9782 0.375 13.2182 0.425909 13.4345 0.518636C13.6527 0.609545 13.8491 0.742273 14.0127 0.907727L15.8309 2.72591L19.4673 6.36227C19.7964 6.69136 20 7.14591 20 7.64773C20 8.14955 19.7964 8.60409 19.4673 8.93318L15.8309 12.5695L14.0127 14.3877C13.6836 14.7168 13.2291 14.9205 12.7273 14.9205C11.7236 14.9205 10.9091 14.1059 10.9091 13.1023V11.2841C6.18909 12.7368 1.81818 15.5823 1.81818 20.375H0C0 13.6005 4.64 5.62591 10.9091 4.01136Z" fill="#CBCBCB"/>
</svg>
