<svg width="20" height="13" viewBox="0 0 20 13" fill="none" xmlns="http://www.w3.org/2000/svg">
<path id="Icon" fill-rule="evenodd" clip-rule="evenodd" d="M10 11.1751C7.23875 11.1751 5 9.02592 5 6.37512C5 3.72432 7.23875 1.57512 10 1.57512C12.7612 1.57512 15 3.72432 15 6.37512C15 9.02592 12.7612 11.1751 10 11.1751ZM10 0.375122C4.4775 0.375122 0 5.17512 0 6.37512C0 7.57512 4.4775 12.3751 10 12.3751C15.5225 12.3751 20 7.57512 20 6.37512C20 5.17512 15.5225 0.375122 10 0.375122ZM10 3.97512C8.61875 3.97512 7.5 5.04912 7.5 6.37512C7.5 7.70112 8.61875 8.77512 10 8.77512C11.38 8.77512 12.5 7.70112 12.5 6.37512C12.5 5.04912 11.38 3.97512 10 3.97512Z" fill="#CBCBCB"/>
</svg>
